<?xml version="1.0" standalone="no"?>
<!DOCTYPE svg PUBLIC "-//W3C//DTD SVG 20010904//EN"
 "http://www.w3.org/TR/2001/REC-SVG-20010904/DTD/svg10.dtd">
<svg version="1.0" xmlns="http://www.w3.org/2000/svg"
 width="512.000000pt" height="512.000000pt" viewBox="0 0 512.000000 512.000000"
 preserveAspectRatio="xMidYMid meet">

<g transform="translate(0.000000,512.000000) scale(0.100000,-0.100000)"
fill="#000000" stroke="none">
<path d="M3259 5085 c-36 -18 -91 -38 -124 -44 -70 -13 -302 -14 -515 -1 -321
18 -539 -26 -704 -144 -62 -44 -99 -85 -128 -139 -10 -21 -34 -37 -81 -57
-120 -51 -188 -125 -222 -242 -14 -49 -22 -60 -60 -82 -87 -52 -154 -172 -181
-326 -30 -175 -5 -485 64 -770 l18 -75 51 0 c77 0 99 -28 118 -147 3 -21 10
-38 16 -38 24 0 29 69 29 405 l0 353 42 68 c49 82 111 212 129 273 7 23 19 45
26 48 8 3 51 -8 96 -25 275 -103 474 -135 827 -134 188 0 496 21 552 38 26 8
120 -90 156 -162 76 -151 102 -311 102 -632 0 -207 2 -233 16 -230 9 2 26 34
42 83 24 71 31 82 63 97 34 17 36 20 68 150 61 248 74 345 75 558 0 154 -3
209 -17 263 -25 100 -65 176 -109 206 -29 20 -37 31 -33 46 3 11 13 54 22 95
34 158 -15 300 -155 450 -44 47 -88 100 -99 117 l-18 31 -66 -33z"/>
<path d="M2413 989 c-46 -39 -83 -75 -83 -80 0 -25 34 -87 65 -119 l35 -35
-60 -69 c-37 -43 -60 -79 -60 -93 0 -14 20 -145 45 -293 25 -148 45 -271 45
-274 0 -3 45 -6 99 -6 l99 0 6 27 c3 16 24 138 46 273 22 135 42 255 45 267 4
17 -10 40 -58 94 l-64 73 32 31 c34 35 65 93 65 122 -1 15 -143 142 -168 150
-4 1 -44 -29 -89 -68z"/>
</g>
</svg>
