<?xml version="1.0" standalone="no"?>
<!DOCTYPE svg PUBLIC "-//W3C//DTD SVG 20010904//EN"
 "http://www.w3.org/TR/2001/REC-SVG-20010904/DTD/svg10.dtd">
<svg version="1.0" xmlns="http://www.w3.org/2000/svg"
 width="512.000000pt" height="512.000000pt" viewBox="0 0 512.000000 512.000000"
 preserveAspectRatio="xMidYMid meet">

<g transform="translate(0.000000,512.000000) scale(0.100000,-0.100000)"
fill="#000000" stroke="none">
<path d="M292 5099 c-26 -13 -55 -39 -70 -62 l-27 -41 -3 -1201 -2 -1202 21
-27 c27 -34 76 -36 107 -3 l22 23 0 802 0 802 1920 0 1920 0 0 -218 c0 -120
-4 -222 -9 -228 -16 -17 -331 -692 -331 -709 0 -22 54 -75 77 -75 40 0 67 36
142 192 l76 158 160 -76 c88 -41 163 -79 168 -83 4 -4 -7 -36 -24 -72 -46 -93
-136 -283 -174 -364 -18 -38 -83 -176 -145 -305 -62 -129 -127 -266 -145 -305
-18 -38 -83 -176 -145 -305 -62 -129 -127 -268 -146 -307 -18 -40 -37 -73 -42
-73 -8 0 -322 147 -330 155 -1 1 119 258 268 570 148 312 270 578 270 590 0
57 -76 93 -120 57 -13 -10 -62 -100 -110 -203 l-88 -184 -1122 -5 -1122 -5
-24 -28 c-32 -37 -30 -62 5 -98 l29 -29 1076 0 c592 0 1076 -2 1076 -5 0 -2
-40 -88 -89 -190 l-90 -185 -1250 0 -1250 0 -20 -26 c-26 -33 -27 -65 -2 -95
l19 -24 1215 -5 1215 -5 -34 -75 c-31 -66 -36 -89 -42 -185 l-7 -110 -1163 -5
-1164 -5 -19 -24 c-26 -32 -24 -73 4 -99 l23 -22 1154 0 1153 0 -7 -108 c-3
-59 -9 -173 -13 -254 l-6 -146 31 -31 c24 -24 39 -31 69 -31 21 1 47 6 59 13
11 7 159 140 327 296 l306 284 108 226 c59 124 129 268 155 321 l47 95 0 -835
c1 -638 -2 -839 -11 -848 -17 -17 -3799 -17 -3816 0 -9 9 -12 261 -12 1073 l0
1062 -23 21 c-31 29 -72 28 -103 -3 l-24 -24 2 -1084 3 -1083 27 -41 c16 -24
44 -49 70 -62 l44 -21 1924 0 1924 0 44 21 c26 13 54 38 70 62 l27 41 5 1035
5 1036 284 590 c156 325 290 610 297 634 32 100 2 204 -80 286 -40 40 -80 64
-191 115 -138 64 -141 65 -227 65 l-88 0 -2 556 -3 555 -27 41 c-16 24 -44 49
-70 62 l-44 21 -1925 0 -1924 0 -43 -21z m3872 -145 c14 -13 16 -56 16 -310
l0 -294 -1920 0 -1920 0 0 294 c0 254 2 297 16 310 14 14 200 16 1904 16 1704
0 1890 -2 1904 -16z m-703 -3622 c101 -48 190 -91 197 -96 9 -5 -11 -30 -70
-86 -46 -44 -88 -79 -95 -80 -6 0 -62 23 -122 51 -107 50 -111 53 -111 84 0
41 12 215 15 215 1 0 85 -39 186 -88z m-148 -356 c26 -10 47 -22 47 -26 0 -5
-27 -31 -60 -60 l-60 -52 0 29 c0 48 13 134 19 131 3 -2 27 -11 54 -22z"/>
<path d="M805 4709 c-51 -29 -60 -85 -20 -124 l24 -25 844 0 c839 0 844 0 871
21 32 25 35 75 7 110 l-19 24 -844 2 c-600 2 -849 -1 -863 -8z"/>
<path d="M2885 4695 c-46 -45 -23 -118 40 -131 74 -14 118 88 59 135 -35 28
-69 26 -99 -4z"/>
<path d="M3274 4697 c-20 -17 -27 -33 -27 -57 0 -39 40 -80 79 -80 32 0 74 42
74 74 0 38 -10 55 -41 71 -38 20 -53 19 -85 -8z"/>
<path d="M3684 4710 c-28 -11 -54 -48 -54 -78 0 -53 79 -91 122 -58 70 53 12
168 -68 136z"/>
<path d="M982 3681 c-18 -12 -37 -33 -43 -48 -6 -16 -9 -142 -7 -331 l3 -304
33 -29 34 -30 177 3 c174 3 178 4 219 30 22 15 54 49 69 75 24 40 28 59 28
118 -1 77 -17 118 -66 171 -26 27 -28 34 -19 58 35 92 -9 218 -95 271 -46 29
-54 30 -174 33 -113 3 -129 1 -159 -17z m269 -160 c24 -30 24 -72 0 -102 -17
-21 -28 -24 -93 -24 l-73 0 -3 64 c-4 93 -4 94 79 89 60 -3 74 -8 90 -27z m71
-298 c12 -11 18 -30 18 -59 0 -64 -20 -74 -152 -74 l-108 0 0 75 0 75 112 0
c90 0 115 -3 130 -17z"/>
<path d="M1685 3675 l-25 -24 0 -334 0 -334 23 -21 c22 -21 31 -22 235 -22
199 0 213 1 232 20 28 28 26 81 -3 108 -22 21 -33 22 -180 22 l-157 0 0 280 0
281 -25 24 c-13 14 -36 25 -50 25 -14 0 -37 -11 -50 -25z"/>
<path d="M2462 3682 c-63 -23 -123 -78 -155 -142 -20 -41 -22 -59 -22 -220 0
-171 1 -176 28 -232 49 -100 134 -148 261 -148 123 0 223 68 260 178 20 56 21
349 3 399 -54 145 -222 219 -375 165z m186 -158 c41 -27 52 -72 52 -210 0 -94
-4 -134 -16 -159 -37 -79 -176 -87 -228 -13 -13 18 -16 53 -16 173 0 171 11
206 72 224 41 12 105 5 136 -15z"/>
<path d="M3103 3675 c-58 -29 -96 -78 -113 -146 -7 -29 -10 -119 -8 -246 l3
-200 30 -48 c49 -79 91 -95 244 -95 157 0 194 10 247 65 45 46 64 101 64 182
0 141 -78 222 -216 223 -51 0 -64 -4 -82 -23 -51 -54 -12 -127 69 -127 65 0
74 -10 74 -76 0 -83 -18 -94 -149 -94 -66 0 -106 4 -114 12 -9 9 -12 70 -12
214 0 175 2 203 17 215 11 10 60 15 170 19 138 4 156 7 169 24 23 33 18 82
-12 105 -24 19 -40 21 -178 21 -143 0 -155 -2 -203 -25z"/>
</g>
</svg>
