<?xml version="1.0" standalone="no"?>
<!DOCTYPE svg PUBLIC "-//W3C//DTD SVG 20010904//EN"
 "http://www.w3.org/TR/2001/REC-SVG-20010904/DTD/svg10.dtd">
<svg version="1.0" xmlns="http://www.w3.org/2000/svg"
 width="512.000000pt" height="512.000000pt" viewBox="0 0 512.000000 512.000000"
 preserveAspectRatio="xMidYMid meet">

<g transform="translate(0.000000,512.000000) scale(0.100000,-0.100000)"
fill="#000000" stroke="none">
<path d="M955 4945 c-52 -19 -130 -100 -144 -151 -6 -21 -11 -119 -11 -216 l0
-178 -147 0 c-163 0 -201 -10 -257 -66 -58 -59 -71 -99 -71 -214 0 -115 13
-155 71 -214 56 -56 94 -66 257 -66 l147 0 0 -240 0 -240 -147 0 c-163 0 -201
-10 -257 -66 -58 -59 -71 -99 -71 -214 0 -115 13 -155 71 -214 56 -56 94 -66
257 -66 l147 0 0 -240 0 -240 -148 0 c-139 0 -151 -2 -200 -26 -57 -28 -105
-90 -123 -158 -17 -61 -7 -193 18 -241 28 -53 69 -94 118 -116 33 -15 66 -19
188 -19 l147 0 0 -240 0 -240 -147 0 c-163 0 -201 -10 -257 -66 -58 -59 -71
-99 -71 -214 0 -115 13 -155 71 -214 56 -56 94 -66 257 -66 l147 0 0 -177 c0
-98 5 -196 11 -218 15 -53 103 -140 157 -155 28 -7 516 -9 1614 -8 1748 3
1595 -3 1667 70 50 50 64 86 69 170 l4 76 157 4 c170 4 191 9 250 69 69 68 66
44 66 569 0 525 3 501 -66 569 -60 60 -79 65 -251 69 l-158 4 0 78 0 78 158 4
c172 4 191 9 251 69 69 68 66 44 66 569 0 525 3 501 -66 569 -60 60 -79 65
-251 69 l-158 4 0 78 0 78 158 4 c172 4 191 9 251 69 69 68 66 44 66 569 0
525 3 501 -66 569 -59 60 -80 65 -250 69 l-157 4 -4 76 c-5 84 -19 120 -69
170 -72 73 82 67 -1674 69 -1345 2 -1586 0 -1620 -12z m3177 -173 l23 -23 0
-2189 0 -2189 -23 -23 -23 -23 -1549 0 -1549 0 -23 23 c-22 21 -23 31 -26 197
l-3 175 232 0 c216 0 236 2 276 21 184 89 184 429 0 518 -40 19 -60 21 -275
21 l-232 0 0 240 0 240 232 0 c215 0 235 2 275 21 184 89 184 429 0 518 -40
19 -60 21 -275 21 l-232 0 0 240 0 240 232 0 c215 0 235 2 275 21 184 89 184
429 0 518 -40 19 -60 21 -275 21 l-232 0 0 240 0 240 232 0 c215 0 235 2 275
21 184 89 184 429 0 518 -40 19 -60 21 -275 21 l-232 0 0 163 c0 174 7 202 50
224 20 10 342 12 1562 10 l1537 -2 23 -23z"/>
<path d="M2555 3581 c-94 -27 -154 -61 -228 -130 -120 -113 -175 -262 -164
-449 6 -107 29 -187 77 -265 17 -27 30 -50 30 -52 0 -2 -24 -9 -52 -15 -152
-35 -274 -118 -360 -243 -57 -84 -87 -172 -99 -295 -19 -186 16 -318 105 -400
50 -46 87 -59 269 -96 454 -93 704 -94 1147 -5 211 42 245 54 296 101 83 76
121 204 108 367 -8 115 -28 192 -72 275 -79 151 -216 255 -389 296 -29 6 -53
13 -53 15 0 2 13 25 30 52 50 81 72 157 77 273 9 183 -40 315 -160 434 -79 78
-147 117 -249 141 -85 20 -237 18 -313 -4z m250 -152 c123 -23 214 -93 268
-207 30 -63 32 -74 32 -182 0 -108 -2 -119 -32 -182 -75 -159 -238 -240 -424
-209 -134 22 -226 90 -282 209 -30 63 -32 74 -32 182 0 108 2 119 32 182 78
165 243 243 438 207z m-288 -916 c69 -24 93 -27 203 -27 110 0 134 3 202 27
76 26 76 26 165 11 189 -32 273 -74 345 -169 60 -79 80 -143 86 -270 8 -190
-17 -235 -143 -266 -212 -50 -504 -91 -655 -91 -151 0 -443 41 -655 91 -126
31 -151 76 -143 266 6 127 26 191 86 270 42 56 126 117 187 135 31 10 197 44
237 49 4 1 43 -11 85 -26z"/>
</g>
</svg>
