<?xml version="1.0" standalone="no"?>
<!DOCTYPE svg PUBLIC "-//W3C//DTD SVG 20010904//EN"
 "http://www.w3.org/TR/2001/REC-SVG-20010904/DTD/svg10.dtd">
<svg version="1.0" xmlns="http://www.w3.org/2000/svg"
 width="512.000000pt" height="512.000000pt" viewBox="0 0 512.000000 512.000000"
 preserveAspectRatio="xMidYMid meet">

<g transform="translate(0.000000,512.000000) scale(0.100000,-0.100000)"
fill="#000000" stroke="none">
<path d="M2445 5089 c-22 -5 -68 -24 -102 -42 -42 -21 -433 -341 -1188 -970
-910 -758 -1130 -945 -1142 -975 -19 -45 -12 -115 14 -150 38 -50 70 -67 132
-67 48 0 64 5 97 30 21 16 524 434 1117 928 593 494 1092 907 1110 917 48 29
113 26 165 -7 23 -16 445 -363 936 -773 l895 -745 -2 -1407 c-2 -1403 -2
-1407 -23 -1434 -11 -15 -33 -37 -48 -48 -27 -20 -41 -21 -457 -24 l-429 -3 0
903 c0 981 0 969 -56 1080 -59 117 -202 223 -333 248 -72 13 -1070 13 -1142 0
-184 -35 -345 -196 -379 -379 -6 -33 -10 -397 -10 -953 l0 -899 -429 3 c-416
3 -430 4 -457 24 -15 11 -37 33 -48 48 -21 27 -21 37 -26 1045 l-5 1018 -27
35 c-55 72 -152 88 -222 35 -70 -54 -66 15 -66 -1090 0 -634 4 -1014 10 -1048
25 -131 131 -274 248 -333 116 -59 16 -56 1978 -56 1157 0 1821 4 1855 10 90
17 190 72 253 141 31 33 68 83 81 110 56 110 55 67 55 1437 l0 1264 51 -37
c62 -46 119 -56 173 -30 80 38 117 134 80 210 -13 29 -118 121 -440 389 l-423
351 0 293 c-1 327 -3 340 -67 389 -70 53 -167 37 -222 -35 -26 -34 -27 -40
-32 -204 l-5 -169 -540 450 c-297 248 -561 462 -586 475 -92 51 -236 69 -344
45z m675 -2876 c19 -12 44 -37 55 -55 20 -32 20 -53 23 -936 l2 -902 -640 0
-640 0 0 893 0 893 23 44 c16 33 34 51 67 68 l45 23 515 -3 c509 -3 515 -3
550 -25z"/>
</g>
</svg>
