<?xml version="1.0" standalone="no"?>
<!DOCTYPE svg PUBLIC "-//W3C//DTD SVG 20010904//EN"
 "http://www.w3.org/TR/2001/REC-SVG-20010904/DTD/svg10.dtd">
<svg version="1.0" xmlns="http://www.w3.org/2000/svg"
 width="512.000000pt" height="512.000000pt" viewBox="0 0 512.000000 512.000000"
 preserveAspectRatio="xMidYMid meet">

<g transform="translate(0.000000,512.000000) scale(0.100000,-0.100000)"
fill="#000000" stroke="none">
<path d="M466 4869 c-62 -15 -153 -68 -197 -116 -22 -24 -55 -74 -72 -111
l-32 -67 0 -1456 0 -1455 37 -76 c45 -91 103 -148 196 -191 62 -29 77 -32 195
-35 l127 -4 0 79 0 80 -109 5 c-85 4 -120 10 -155 28 -48 23 -98 77 -117 126
-14 37 -14 131 0 168 20 50 70 104 119 127 42 21 65 24 212 27 150 4 167 6
188 25 l22 20 0 1139 0 1138 1680 0 1680 0 0 -1138 0 -1139 23 -20 c20 -19 37
-21 187 -25 177 -5 208 -12 267 -62 103 -87 100 -271 -6 -355 -62 -50 -84 -54
-283 -59 l-188 -4 0 -80 0 -80 208 4 208 3 76 37 c91 45 147 103 191 196 l32
67 0 1455 0 1455 -32 67 c-44 93 -100 151 -191 196 l-76 37 -182 3 -183 4 -26
-26 c-25 -25 -25 -26 -25 -201 l0 -175 -1680 0 -1680 0 0 175 c0 173 0 176
-25 200 -24 25 -27 25 -187 24 -90 -1 -180 -5 -202 -10z m254 -1428 l0 -1279
-132 -4 c-138 -3 -135 -2 -261 -66 -4 -2 -6 549 -5 1225 3 1176 4 1229 22
1263 36 69 92 114 161 131 17 4 72 7 123 8 l92 1 0 -1279z m3940 1255 c48 -25
88 -64 113 -111 l22 -40 3 -1228 c1 -676 -1 -1227 -5 -1225 -126 64 -123 63
-260 66 l-133 4 0 1280 0 1281 113 -5 c81 -3 122 -9 147 -22z"/>
<path d="M2480 3880 l0 -120 80 0 80 0 0 120 0 120 -80 0 -80 0 0 -120z"/>
<path d="M1705 3650 l-60 -60 88 -88 87 -87 60 60 60 60 -88 88 -88 87 -59
-60z"/>
<path d="M3267 3622 l-87 -88 58 -57 57 -57 88 88 87 88 -58 57 -57 57 -88
-88z"/>
<path d="M2384 3505 c-301 -65 -558 -329 -613 -629 -20 -106 -14 -262 13 -369
31 -120 72 -203 197 -393 l99 -150 0 -312 0 -312 90 -180 c50 -99 98 -184 109
-190 27 -14 535 -14 562 0 11 6 59 91 109 190 l90 180 0 312 0 312 99 150
c125 190 166 273 197 393 28 112 32 277 10 384 -65 305 -327 562 -630 618 -80
15 -256 13 -332 -4z m372 -179 c192 -61 347 -216 411 -410 22 -67 26 -100 27
-191 1 -181 -35 -279 -186 -507 l-91 -138 -48 0 c-27 0 -49 1 -49 3 0 2 32
160 70 352 39 192 70 360 70 373 0 12 -11 34 -25 47 -44 45 -70 36 -225 -80
-77 -58 -145 -105 -150 -105 -5 0 -73 47 -150 105 -155 116 -181 125 -225 80
-14 -13 -25 -35 -25 -47 0 -13 32 -181 70 -373 39 -192 70 -350 70 -352 0 -2
-22 -3 -49 -3 l-48 0 -91 138 c-151 228 -187 326 -186 507 1 91 5 124 27 191
110 335 466 517 803 410z m-305 -786 c54 -40 90 -60 109 -60 19 0 55 20 109
60 45 33 83 60 85 60 1 0 -20 -116 -48 -257 l-52 -258 -94 0 -94 0 -52 258
c-28 141 -49 257 -48 257 2 0 40 -27 85 -60z m429 -860 l0 -240 -320 0 -320 0
0 240 0 240 320 0 320 0 0 -240z"/>
<path d="M1360 2800 l0 -80 120 0 120 0 0 80 0 80 -120 0 -120 0 0 -80z"/>
<path d="M3520 2800 l0 -80 120 0 120 0 0 80 0 80 -120 0 -120 0 0 -80z"/>
<path d="M3462 2537 l-22 -23 0 -910 1 -909 132 -220 c191 -316 183 -316 374
0 l132 220 1 911 0 911 -23 21 c-23 21 -30 22 -298 22 -275 0 -276 0 -297 -23z
m458 -217 l0 -80 -160 0 -160 0 0 80 0 80 160 0 160 0 0 -80z m0 -280 l0 -40
-160 0 -160 0 0 40 0 40 160 0 160 0 0 -40z m-240 -720 l0 -520 -40 0 -40 0 0
520 0 520 40 0 40 0 0 -520z m240 0 l0 -520 -40 0 -40 0 0 520 0 520 40 0 40
0 0 -520z m-70 -686 c0 -12 -83 -144 -90 -144 -7 0 -90 132 -90 144 0 3 41 6
90 6 50 0 90 -3 90 -6z"/>
<path d="M1495 1900 c-44 -17 -127 -97 -676 -647 -568 -570 -628 -633 -643
-677 -32 -98 -11 -192 59 -261 78 -78 56 -76 796 -73 l654 3 51 27 c76 40 107
70 145 140 l34 63 3 599 c3 694 7 663 -87 757 -38 38 -72 61 -105 72 -66 23
-168 21 -231 -3z m181 -159 c54 -24 84 -84 84 -164 l0 -57 -80 0 -80 0 0 -80
0 -80 80 0 80 0 0 -80 0 -80 -80 0 -80 0 0 -80 0 -80 80 0 80 0 0 -80 0 -80
-80 0 -80 0 0 -80 0 -80 80 0 80 0 0 -93 c0 -173 -54 -227 -227 -227 l-93 0 0
80 0 80 -80 0 -80 0 0 -80 0 -80 -80 0 -80 0 0 80 0 80 -80 0 -80 0 0 -80 0
-80 -80 0 -80 0 0 80 0 80 -80 0 -80 0 0 -80 0 -80 -122 0 c-79 0 -132 5 -148
13 -32 16 -54 61 -45 95 9 38 1176 1208 1230 1233 50 23 70 23 121 0z"/>
<path d="M1103 1057 c-200 -199 -223 -226 -223 -255 0 -22 8 -41 25 -57 l24
-25 231 0 231 0 24 25 25 24 0 231 0 231 -25 24 c-16 17 -35 25 -57 25 -29 0
-56 -23 -255 -223z m177 -117 l0 -60 -62 0 -62 0 59 60 c33 33 61 60 62 60 2
0 3 -27 3 -60z"/>
</g>
</svg>
